<?xml version="1.0" standalone="no"?><!DOCTYPE svg PUBLIC "-//W3C//DTD SVG 1.1//EN" "http://www.w3.org/Graphics/SVG/1.1/DTD/svg11.dtd"><svg t="1676534440564" class="icon" viewBox="0 0 1024 1024" version="1.1" xmlns="http://www.w3.org/2000/svg" p-id="7029" xmlns:xlink="http://www.w3.org/1999/xlink" width="10" height="10"><path d="M537.6 130.133333c-46.933333-4.266667-91.733333 0-132.266667 10.666667-14.933333 4.266667-21.333333 19.2-14.933333 34.133333 10.666667 23.466667 14.933333 51.2 12.8 81.066667-6.4 70.4-59.733333 130.133333-130.133333 142.933333-6.4 2.133333-12.8 2.133333-17.066667 2.133334-17.066667 2.133333-27.733333 19.2-19.2 34.133333 6.4 17.066667 10.666667 34.133333 10.666667 53.333333 0 57.6-38.4 106.666667-89.6 125.866667-12.8 4.266667-19.2 19.2-14.933334 32 51.2 145.066667 192 249.6 358.4 249.6 219.733333 0 396.8-183.466667 384-407.466667-12.8-187.733333-162.133333-341.333333-347.733333-358.4z" fill="#FD7D70" p-id="7030"></path><path d="M584.533333 379.733333m-74.666666 0a74.666667 74.666667 0 1 0 149.333333 0 74.666667 74.666667 0 1 0-149.333333 0Z" fill="#FFDCB4" p-id="7031"></path><path d="M443.733333 640m-74.666666 0a74.666667 74.666667 0 1 0 149.333333 0 74.666667 74.666667 0 1 0-149.333333 0Z" fill="#FFDCB4" p-id="7032"></path><path d="M704 635.733333m-61.866667 0a61.866667 61.866667 0 1 0 123.733334 0 61.866667 61.866667 0 1 0-123.733334 0Z" fill="#FFDCB4" p-id="7033"></path></svg>